<svg viewBox="12.783783783783782 9.332 75.67567567567568 83.7" version="1.1" xmlns="http://www.w3.org/2000/svg" style="max-height: 500px" width="75.67567567567568" height="83.7">
 <path d="m36 66c-2.4141 0.03125-4.4805-1.7227-4.8398-4.1094l-0.5-3c-0.97266-5.9258-5.6133-10.574-11.539-11.551l-3-0.5c-2.3828-0.375-4.1367-2.4297-4.1367-4.8398s1.7539-4.4648 4.1367-4.8398l3-0.5c5.9219-0.97656 10.562-5.6172 11.539-11.539l0.5-3c0.375-2.3828 2.4297-4.1367 4.8398-4.1367s4.4648 1.7539 4.8398 4.1367l0.5 3c0.97656 5.9219 5.6172 10.562 11.539 11.539l3 0.5c2.3828 0.375 4.1367 2.4297 4.1367 4.8398s-1.7539 4.4648-4.1367 4.8398l-3 0.5c-5.9219 0.97656-10.562 5.6172-11.539 11.539l-0.5 3c-0.35547 2.3906-2.4219 4.1523-4.8398 4.1211zm-1.3906-40.219c-0.61328 3.7109-2.3711 7.1367-5.0312 9.7969s-6.0859 4.418-9.7969 5.0312l-3 0.5c-0.44141 0.066406-0.76562 0.44531-0.76562 0.89062s0.32422 0.82422 0.76562 0.89062l3 0.5c3.7109 0.61328 7.1367 2.3711 9.7969 5.0312s4.418 6.0859 5.0312 9.7969l0.5 3c0.066406 0.44141 0.44531 0.76562 0.89062 0.76562s0.82422-0.32422 0.89062-0.76562l0.5-3c0.61328-3.7109 2.3711-7.1367 5.0312-9.7969s6.0859-4.418 9.7969-5.0312l3-0.5c0.44141-0.066406 0.76562-0.44531 0.76562-0.89062s-0.32422-0.82422-0.76562-0.89062l-3-0.5c-3.7109-0.61328-7.1367-2.3711-9.7969-5.0312s-4.418-6.0859-5.0312-9.7969l-0.5-3c-0.066406-0.44141-0.44531-0.76562-0.89062-0.76562s-0.82422 0.32422-0.89062 0.76562z"/>
 <path d="m68 93c-1.8906 0.023438-3.5117-1.3516-3.8008-3.2188l-0.57031-3.4688v-0.003906c-0.41797-2.5312-2.4062-4.5195-4.9375-4.9375l-3.4688-0.57031h-0.003906c-1.8633-0.30469-3.2305-1.9141-3.2305-3.8008s1.3672-3.4961 3.2305-3.8008l3.4688-0.57031h0.003906c2.5312-0.41797 4.5195-2.4062 4.9375-4.9375l0.57031-3.4688v-0.003906c0.30469-1.8633 1.9141-3.2305 3.8008-3.2305s3.4961 1.3672 3.8008 3.2305l0.57031 3.4688v0.003906c0.41797 2.5312 2.4062 4.5195 4.9375 4.9375l3.4688 0.57031h0.003906c1.8633 0.30469 3.2305 1.9141 3.2305 3.8008s-1.3672 3.4961-3.2305 3.8008l-3.4688 0.57031h-0.003906c-2.5312 0.41797-4.5195 2.4062-4.9375 4.9375l-0.57031 3.4688v0.003906c-0.28906 1.8672-1.9102 3.2422-3.8008 3.2188zm-11.219-16 2.5586 0.42188c4.2305 0.69531 7.543 4.0078 8.2383 8.2383l0.42188 2.5586 0.42188-2.5586c0.69531-4.2305 4.0078-7.543 8.2383-8.2383l2.5586-0.42188-2.5586-0.42188c-4.2305-0.69531-7.543-4.0078-8.2383-8.2383l-0.42188-2.5586-0.42188 2.5586c-0.69531 4.2305-4.0078 7.543-8.2383 8.2383z"/>
 <path d="m77 31c-1.5664 0.019531-2.9102-1.1211-3.1484-2.6719l-0.26172-1.6211v0.003907c-0.27734-1.6953-1.6055-3.0234-3.3008-3.3008l-1.6211-0.26172h0.003906c-1.5508-0.24609-2.6875-1.582-2.6875-3.1484s1.1367-2.9023 2.6875-3.1484l1.6211-0.26172h-0.003907c1.6953-0.27734 3.0234-1.6055 3.3008-3.3008l0.26172-1.6211v0.003906c0.24609-1.5508 1.582-2.6875 3.1484-2.6875s2.9023 1.1367 3.1484 2.6875l0.26172 1.6211v-0.003907c0.27734 1.6953 1.6055 3.0234 3.3008 3.3008l1.6211 0.26172h-0.003906c1.5508 0.24609 2.6875 1.582 2.6875 3.1484s-1.1367 2.9023-2.6875 3.1484l-1.6211 0.26172h0.003907c-1.6953 0.27734-3.0234 1.6055-3.3008 3.3008l-0.26172 1.6211v-0.003906c-0.23828 1.5508-1.582 2.6914-3.1484 2.6719zm-4.2188-11c1.8984 0.80859 3.4102 2.3203 4.2188 4.2188 0.80859-1.8984 2.3203-3.4102 4.2188-4.2188-1.8984-0.80859-3.4102-2.3203-4.2188-4.2188-0.80859 1.8984-2.3203 3.4102-4.2188 4.2188z"/>
<text fill="#000000" font-family="Arbeit Regular, Helvetica, Arial-Unicode, Arial, Sans-serif" font-weight="bold" font-size="5.0" y="117.5" x="0.0">Created by Afrian E. Prasetyo</text><text fill="#000000" font-family="Arbeit Regular, Helvetica, Arial-Unicode, Arial, Sans-serif" font-weight="bold" font-size="5.0" y="122.5" x="0.0">from Noun Project</text></svg>